<svg width="14" height="14" viewBox="0 0 14 14" fill="none" xmlns="http://www.w3.org/2000/svg">
<path d="M1.99805 0.573242H4.0127C4.36994 0.568113 4.71726 0.690755 4.99219 0.918945C5.23275 1.11861 5.4046 1.38749 5.48438 1.6875L5.5127 1.81836C5.52297 1.89212 5.53432 1.96783 5.54785 2.04395L5.59766 2.29102C5.66945 2.60958 5.76223 2.92303 5.875 3.22949V3.23047C5.94528 3.42365 5.94202 3.63647 5.86523 3.82715C5.78882 4.01665 5.6449 4.17101 5.46191 4.26172L5.16406 4.39844L4.66797 4.625L4.93652 5.09961C5.32459 5.78386 5.79818 6.41664 6.3457 6.98145L6.35156 6.9873L6.35742 6.99219C6.92218 7.53969 7.55409 8.0133 8.23828 8.40137L8.70508 8.66602L8.93652 8.18262L9.08105 7.87988C9.17149 7.69522 9.3269 7.55056 9.51758 7.47363C9.7067 7.39737 9.91742 7.39249 10.1094 7.46094V7.46191C10.4152 7.5766 10.7291 7.66887 11.0479 7.74023V7.74121C11.1295 7.7598 11.3267 7.8133 11.5225 7.82715C11.8558 7.89614 12.1556 8.07653 12.373 8.33887C12.566 8.57169 12.6838 8.85619 12.7119 9.15527L12.7188 9.28418V11.2803L12.71 11.4385C12.6936 11.5955 12.6525 11.7498 12.5879 11.8945C12.5233 12.039 12.4368 12.1722 12.3311 12.2891L12.2188 12.4004C11.9435 12.6454 11.5873 12.7808 11.2188 12.7803H11.2002L11.1807 12.7812C11.1219 12.7857 11.0627 12.7854 11.0039 12.7812C8.51212 12.4518 6.18687 11.3623 4.3418 9.66699L3.97852 9.31934C2.08017 7.41648 0.862777 4.94062 0.514648 2.27539L0.513672 2.27246L0.500977 2.11035C0.49649 1.94889 0.517242 1.78705 0.564453 1.63184C0.627467 1.42477 0.734135 1.23306 0.87793 1.07129C1.01865 0.91429 1.19223 0.790054 1.38477 0.704102C1.52947 0.639519 1.6829 0.597464 1.83984 0.581055L1.99805 0.573242ZM7.99805 3.16699C8.5725 3.16699 9.12398 3.39469 9.53027 3.80078C9.93653 4.20703 10.165 4.75849 10.165 5.33301C10.165 5.37721 10.1475 5.41992 10.1162 5.45117C10.085 5.48239 10.0422 5.5 9.99805 5.5C9.95405 5.49988 9.912 5.48226 9.88086 5.45117C9.8496 5.41992 9.83203 5.37721 9.83203 5.33301C9.83195 4.84694 9.6386 4.38084 9.29492 4.03711C8.95111 3.69329 8.48428 3.5 7.99805 3.5C7.95405 3.49988 7.912 3.48226 7.88086 3.45117C7.8496 3.41992 7.83203 3.37721 7.83203 3.33301C7.83212 3.28895 7.84972 3.24699 7.88086 3.21582C7.91201 3.18467 7.954 3.16711 7.99805 3.16699ZM7.99805 0.5C9.27881 0.50165 10.507 1.01176 11.4121 1.91797C12.3169 2.82411 12.8251 4.05245 12.8252 5.33301V5.76074C12.8202 5.80002 12.8028 5.83654 12.7734 5.86328C12.7426 5.89136 12.7019 5.90642 12.6602 5.90625H12.6416C12.6003 5.90091 12.5621 5.88155 12.5352 5.84961C12.5069 5.8159 12.4934 5.77237 12.4971 5.72852L12.498 5.70801V5.33301C12.498 4.1397 12.0244 2.99519 11.1807 2.15137C10.3368 1.30745 9.19152 0.833008 7.99805 0.833008H7.62402L7.60254 0.834961C7.55794 0.838684 7.51371 0.824752 7.47949 0.795898C7.44522 0.766991 7.42372 0.725341 7.41992 0.680664C7.41622 0.636137 7.4302 0.591798 7.45898 0.557617C7.48639 0.525115 7.52537 0.505318 7.56738 0.5H7.99805ZM5.16504 1.86426L5.15332 1.81055C5.09405 1.54738 4.94512 1.3124 4.73242 1.14648C4.5228 0.982982 4.26363 0.896578 3.99805 0.900391H1.99805C1.83472 0.899741 1.67296 0.933234 1.52344 0.999023C1.37344 1.06505 1.23895 1.16177 1.12891 1.2832C1.01244 1.41104 0.92545 1.56311 0.875 1.72852C0.825483 1.89093 0.812444 2.06239 0.835938 2.23047V2.23145C1.17829 4.83882 2.37196 7.26057 4.23145 9.12012L4.23242 9.12109C6.08832 10.9643 8.49855 12.1467 11.0918 12.4873V12.4883C11.0934 12.4885 11.0951 12.4881 11.0967 12.4883C11.0979 12.4884 11.0993 12.4891 11.1006 12.4893V12.4883C11.269 12.5119 11.4408 12.4998 11.6035 12.4502C11.7689 12.3997 11.9201 12.3117 12.0479 12.1953C12.1679 12.0865 12.2651 11.9546 12.3311 11.8066C12.3972 11.6582 12.4312 11.4975 12.4316 11.335V11.3184L12.3721 9.25879H12.3711C12.3715 8.99846 12.2854 8.74474 12.125 8.53906C11.9592 8.32665 11.7248 8.17842 11.4619 8.11914L11.4434 8.11523L11.4248 8.1123L11.1699 8.07031C11.0855 8.05483 11.0025 8.03769 10.9238 8.01953L10.9199 8.01855L10.6689 7.95898C10.419 7.89513 10.1722 7.8189 9.92969 7.73047L9.49316 7.57129L9.30273 7.99512L8.88379 8.9248C8.86538 8.96479 8.83225 8.99633 8.79102 9.01172L8.77539 9.01758C8.73565 9.0339 8.6913 9.03323 8.65137 9.01758C6.71644 8.10888 5.15986 6.55258 4.25195 4.61719C4.23777 4.57836 4.23827 4.53549 4.25391 4.49707L4.25781 4.48926L4.26074 4.48145C4.2761 4.4402 4.30672 4.40614 4.34668 4.3877L4.35156 4.38574L5.28516 3.94531L5.7041 3.74805L5.53906 3.31543C5.42068 3.00409 5.3247 2.68463 5.25293 2.35938V2.3584L5.18848 2.08691C5.17328 2.02147 5.16504 1.97339 5.16504 1.91992V1.86426Z" fill="currentColor" stroke="currentColor"/>
</svg>
