<svg width="16" height="16" viewBox="0 0 16 16" fill="none" xmlns="http://www.w3.org/2000/svg">
<path d="M11.3333 12.2867H8.66665L5.69997 14.26C5.25997 14.5533 4.66665 14.24 4.66665 13.7067V12.2867C2.66665 12.2867 1.33331 10.9534 1.33331 8.95337V4.95333C1.33331 2.95333 2.66665 1.62 4.66665 1.62H11.3333C13.3333 1.62 14.6666 2.95333 14.6666 4.95333V8.95337C14.6666 10.9534 13.3333 12.2867 11.3333 12.2867Z" stroke="currentColor" stroke-width="1.2" stroke-miterlimit="10" stroke-linecap="round" stroke-linejoin="round"/>
<path d="M8.00002 7.5733V7.43333C8.00002 6.98 8.28004 6.73998 8.56004 6.54665C8.83337 6.35998 9.10667 6.11999 9.10667 5.67999C9.10667 5.06666 8.61335 4.5733 8.00002 4.5733C7.38669 4.5733 6.89337 5.06666 6.89337 5.67999" stroke="currentColor" stroke-width="1.2" stroke-linecap="round" stroke-linejoin="round"/>
<path d="M7.99702 9.16665H8.00302" stroke="currentColor" stroke-width="1.2" stroke-linecap="square" stroke-linejoin="round"/>
</svg>
